<svg class="header-akonini-logo-svg" xmlns="http://www.w3.org/2000/svg" viewBox="0 0 140 135">
                            <path class="akonini-logo-1" d="M86.64,59.73a15.53,15.53,0,0,0-13.53-15.4,15.45,15.45,0,0,0-4,0,15.52,15.52,0,0,0-5.54,29L61,92.59H81.24L78.64,73.3A15.51,15.51,0,0,0,86.64,59.73ZM76.7,69.8l-2.38,1.33.36,2.7,2,14.76H65.56l2-14.76.36-2.7L65.52,69.8a11.52,11.52,0,0,1,3.59-21.43,11.85,11.85,0,0,1,4,0A11.52,11.52,0,0,1,76.7,69.8Z"></path>
                            <path class="akonini-logo-2" d="M135.46,2.74h-26.8A1.81,1.81,0,0,0,107,3.81l-3.43,7.64A66.47,66.47,0,0,0,67.26.7a70.42,70.42,0,0,0-16.51,2A65.77,65.77,0,0,0,1.87,53.51a66.83,66.83,0,0,0,101.86,69.94l3.71,8.7a.2.2,0,0,0,.17.11h28a4,4,0,0,0,4-4V6.83A4.09,4.09,0,0,0,135.46,2.74Zm-2.91,122.52H112.11l-1.94-4.55L106.9,113l-7,4.57a59.79,59.79,0,0,1-79-12.27A60.35,60.35,0,0,1,8.73,54.91,58.81,58.81,0,0,1,52.39,9.49,63.57,63.57,0,0,1,67.26,7.7a59.51,59.51,0,0,1,32.51,9.62l6.86,4.45L110,14.31l2-4.57h20.53Z"></path>
                            <path class="akonini-logo-3" d="M112,9.74l-2,4.57-3.34,7.46-6.86-4.45A59.51,59.51,0,0,0,67.26,7.7,63.57,63.57,0,0,0,52.39,9.49,58.81,58.81,0,0,0,8.73,54.91a60.35,60.35,0,0,0,12.2,50.41,59.79,59.79,0,0,0,79,12.27l7-4.57,3.27,7.69,1.94,4.55h20.44V9.74ZM71.11,105.89a37.5,37.5,0,1,1,37.5-37.5A37.5,37.5,0,0,1,71.11,105.89Z"></path>
                            <path class="akonini-logo-2" d="M71.11,30.89a37.5,37.5,0,1,0,37.5,37.5A37.5,37.5,0,0,0,71.11,30.89Zm2,69.94V92.59h-4v8.24a32.5,32.5,0,0,1,0-64.88v8.38a15.45,15.45,0,0,1,4,0V36a32.5,32.5,0,0,1,0,64.88Z"></path>
                            <path class="akonini-logo-3" d="M82.64,59.73A11.55,11.55,0,0,1,76.7,69.8l-2.38,1.33.36,2.7,2,14.76H65.56l2-14.76.36-2.7L65.52,69.8a11.52,11.52,0,0,1,3.59-21.43,11.85,11.85,0,0,1,4,0A11.55,11.55,0,0,1,82.64,59.73Z"></path>
                            <path class="akonini-logo-3" d="M55.58,59.73a15.52,15.52,0,0,0,8,13.57L61,92.59h8.13v8.24a32.5,32.5,0,0,1,0-64.88v8.38A15.53,15.53,0,0,0,55.58,59.73Z"></path>
                            <path class="akonini-logo-3" d="M103.61,68.39a32.55,32.55,0,0,1-30.5,32.44V92.59h8.13L78.64,73.3a15.52,15.52,0,0,0-5.53-29V36A32.55,32.55,0,0,1,103.61,68.39Z"></path>
                        </svg>